<svg aria-hidden="true" style="position: absolute; width: 0; height: 0; overflow: hidden;" version="1.1" xmlns="http://www.w3.org/2000/svg" xmlns:xlink="http://www.w3.org/1999/xlink">
<defs>
<symbol id="icon-logo" viewBox="0 0 30 32">
<path fill="#f53838" style="fill: var(--color1, #f53838)" d="M26.938 12.474l-0.019-0.019c-0.001-0.001-0.003-0.002-0.003-0.004l-11.78-11.78-11.78 11.78c-0.001 0.001-0.003 0.004-0.003 0.004l-0.019 0.019c-1.801 1.811-2.946 4.173-3.251 6.709s0.246 5.102 1.567 7.289c1.32 2.187 3.334 3.87 5.72 4.781s5.009 0.999 7.451 0.248c0.205-0.063 0.425-0.063 0.631 0 2.442 0.75 5.064 0.663 7.451-0.248s4.4-2.594 5.72-4.781c1.32-2.187 1.872-4.752 1.567-7.289s-1.449-4.898-3.25-6.709zM7.544 20.242c-0.057 0.057-0.103 0.125-0.134 0.2s-0.047 0.155-0.047 0.236c0.021 2.079 0.609 4.113 1.7 5.883 0.025 0.040 0.036 0.087 0.033 0.134s-0.022 0.092-0.052 0.128c-0.031 0.036-0.072 0.061-0.117 0.073s-0.094 0.008-0.138-0.010c-0.82-0.345-1.565-0.847-2.194-1.476-1.288-1.288-2.012-3.034-2.013-4.855s0.721-3.568 2.006-4.858l8.547-8.546 8.547 8.546c1.286 1.289 2.008 3.037 2.007 4.858s-0.725 3.568-2.013 4.855c-0.628 0.63-1.373 1.131-2.193 1.476-0.044 0.018-0.092 0.021-0.138 0.010s-0.087-0.037-0.117-0.073c-0.030-0.036-0.049-0.081-0.052-0.128s0.008-0.094 0.033-0.134c1.091-1.77 1.679-3.804 1.7-5.883 0-0.081-0.016-0.161-0.047-0.236s-0.077-0.143-0.134-0.2l-4.043-4.288c-0.040-0.034-0.091-0.052-0.143-0.052s-0.103 0.018-0.143 0.052c-0.040 0.033-0.067 0.080-0.077 0.132s-0 0.105 0.025 0.15c1.57 2.841 0.22 6.922-2.032 9.174l-0.012 0.012c-0.311 0.307-0.73 0.48-1.167 0.48s-0.857-0.173-1.167-0.48l-0.011-0.011c-2.252-2.252-3.602-6.332-2.031-9.173 0.026-0.046 0.035-0.099 0.025-0.15s-0.037-0.098-0.077-0.132c-0.040-0.034-0.091-0.052-0.143-0.052s-0.103 0.018-0.143 0.052l-4.043 4.287z"></path>
</symbol>
<symbol id="icon-man" viewBox="0 0 32 32">
<path fill="#f53838" style="fill: var(--color1, #f53838)" d="M16 14.527c1.222 0 2.394-0.486 3.258-1.35s1.35-2.036 1.35-3.258-0.485-2.394-1.35-3.258c-0.864-0.864-2.036-1.35-3.258-1.35s-2.394 0.486-3.258 1.35c-0.864 0.864-1.35 2.036-1.35 3.258s0.485 2.394 1.35 3.258c0.864 0.864 2.036 1.35 3.258 1.35zM9.47 28.351c-2.332 0-4.296-1.96-3.404-4.115 0.54-1.304 1.332-2.49 2.331-3.488s2.184-1.79 3.488-2.331c1.304-0.54 2.703-0.818 4.115-0.818s2.81 0.278 4.115 0.818c1.305 0.54 2.49 1.332 3.488 2.331s1.79 2.184 2.331 3.488c0.892 2.154-1.072 4.115-3.404 4.115h-13.059z"></path>
</symbol>
<symbol id="icon-maps" viewBox="0 0 31 32">
<path fill="#f53838" style="fill: var(--color1, #f53838)" d="M24.32 12.223c0-1.177-0.232-2.342-0.682-3.429s-1.11-2.075-1.942-2.907c-0.832-0.832-1.82-1.492-2.907-1.942s-2.252-0.682-3.429-0.682c-1.177 0-2.342 0.232-3.429 0.682s-2.075 1.11-2.907 1.942c-0.832 0.832-1.492 1.82-1.942 2.907s-0.682 2.252-0.682 3.429c0 1.775 0.525 3.427 1.414 4.819h-0.010c3.021 4.73 7.556 11.821 7.556 11.821l7.556-11.821h-0.009c0.922-1.438 1.412-3.111 1.413-4.819zM15.36 16.063c-1.018 0-1.995-0.405-2.715-1.125s-1.125-1.697-1.125-2.715c0-1.018 0.405-1.995 1.125-2.715s1.697-1.125 2.715-1.125c1.018 0 1.995 0.405 2.715 1.125s1.125 1.697 1.125 2.715c0 1.018-0.405 1.995-1.125 2.715s-1.697 1.125-2.715 1.125z"></path>
</symbol>
<symbol id="icon-box" viewBox="0 0 32 32">
<path fill="#f53838" style="fill: var(--color1, #f53838)" d="M26.24 4.543h-20.48c-0.679 0-1.33 0.27-1.81 0.75s-0.75 1.131-0.75 1.81v5.12c0 0.679 0.27 1.33 0.75 1.81s1.131 0.75 1.81 0.75h20.48c0.679 0 1.33-0.27 1.81-0.75s0.75-1.131 0.75-1.81v-5.12c0-0.679-0.27-1.33-0.75-1.81s-1.131-0.75-1.81-0.75zM19.84 9.663c0 0.707-0.573 1.28-1.28 1.28s-1.28-0.573-1.28-1.28c0-0.707 0.573-1.28 1.28-1.28s1.28 0.573 1.28 1.28zM24.96 9.663c0 0.707-0.573 1.28-1.28 1.28s-1.28-0.573-1.28-1.28c0-0.707 0.573-1.28 1.28-1.28s1.28 0.573 1.28 1.28zM26.24 17.343h-20.48c-0.679 0-1.33 0.27-1.81 0.75s-0.75 1.131-0.75 1.81v5.12c0 0.679 0.27 1.33 0.75 1.81s1.131 0.75 1.81 0.75h20.48c0.679 0 1.33-0.27 1.81-0.75s0.75-1.131 0.75-1.81v-5.12c0-0.679-0.27-1.33-0.75-1.81s-1.131-0.75-1.81-0.75zM19.84 22.463c0 0.707-0.573 1.28-1.28 1.28s-1.28-0.573-1.28-1.28c0-0.707 0.573-1.28 1.28-1.28s1.28 0.573 1.28 1.28zM24.96 22.463c0 0.707-0.573 1.28-1.28 1.28s-1.28-0.573-1.28-1.28c0-0.707 0.573-1.28 1.28-1.28s1.28 0.573 1.28 1.28z"></path>
</symbol>
</defs>
</svg>
