<svg aria-hidden="true" style="position: absolute; width: 0; height: 0; overflow: hidden;" version="1.1" xmlns="http://www.w3.org/2000/svg" xmlns:xlink="http://www.w3.org/1999/xlink">
<defs>
<symbol id="icon-Facebook" viewBox="0 0 32 32">
<path d="M12.8 28.8v-12.8h-4.267v-4.267h4.267v-2.291c0-4.338 2.113-6.242 5.718-6.242 1.727 0 2.64 0.128 3.072 0.187v4.080h-2.459c-1.531 0-2.065 0.807-2.065 2.444v1.823h4.485l-0.609 4.267h-3.876v12.8h-4.267z"></path>
</symbol>
<symbol id="icon-instagram" viewBox="0 0 32 32">
<path d="M9 4c-2.75 0-5 2.25-5 5v14c0 2.75 2.25 5 5 5h14c2.75 0 5-2.25 5-5v-14c0-2.75-2.25-5-5-5h-14zM21 8h2c0.553 0 1 0.447 1 1s-0.447 1-1 1h-2c-0.553 0-1-0.447-1-1s0.447-1 1-1zM16 12c2.221 0 4 1.779 4 4s-1.779 4-4 4c-2.221 0-4-1.779-4-4s1.779-4 4-4zM6 13.333h4.635c-0.403 0.805-0.635 1.709-0.635 2.667 0 3.302 2.698 6 6 6s6-2.698 6-6c0-0.958-0.232-1.862-0.635-2.667h4.635v9.667c0 1.669-1.331 3-3 3h-14c-1.669 0-3-1.331-3-3v-9.667z"></path>
</symbol>
<symbol id="icon-twiter" viewBox="0 0 32 32">
<path d="M29.333 5.332c-1.040 0.617-3.127 1.459-4.353 1.701-0.036 0.009-0.065 0.021-0.1 0.031-1.084-1.069-2.569-1.732-4.213-1.732-3.313 0-6 2.687-6 6 0 0.175-0.015 0.496 0 0.667-4.471 0-7.873-2.341-10.313-5.333-0.265 0.667-0.381 1.72-0.381 2.709 0 1.868 1.46 3.703 3.733 4.84-0.419 0.108-0.88 0.185-1.36 0.185-0.775 0-1.595-0.204-2.345-0.823 0 0.023 0 0.044 0 0.068 0 2.611 2.771 4.388 5.235 4.883-0.5 0.295-1.508 0.324-2 0.324-0.347 0-1.573-0.159-1.901-0.22 0.685 2.14 3.157 3.343 5.513 3.385-1.843 1.445-3.121 1.981-6.895 1.981h-1.285c2.384 1.528 5.42 2.668 8.463 2.668 9.907 0 15.537-7.551 15.537-14.668 0-0.115-0.003-0.355-0.007-0.596 0-0.024 0.007-0.047 0.007-0.071 0-0.036-0.011-0.071-0.011-0.107-0.004-0.181-0.008-0.351-0.012-0.439 1.053-0.76 1.967-1.708 2.689-2.788-0.967 0.429-2.004 0.717-3.093 0.848 1.112-0.667 2.692-2.256 3.093-3.515z"></path>
</symbol>
</defs>
</svg>
